<svg width="16" height="16" viewBox="0 0 16 16" fill="none" xmlns="http://www.w3.org/2000/svg">
<path d="M10.7125 13.775H12.55C12.8749 13.775 13.1865 13.6459 13.4162 13.4162C13.6459 13.1865 13.775 12.8749 13.775 12.55V10.7125C13.775 10.5501 13.8395 10.3943 13.9544 10.2794C14.0693 10.1645 14.2251 10.1 14.3875 10.1C14.5499 10.1 14.7057 10.1645 14.8206 10.2794C14.9355 10.3943 15 10.5501 15 10.7125V12.55C15 13.1998 14.7419 13.8229 14.2824 14.2824C13.8229 14.7419 13.1998 15 12.55 15H3.45C2.80022 15 2.17705 14.7419 1.71759 14.2824C1.25812 13.8229 1 13.1998 1 12.55V10.7125C1 10.5501 1.06453 10.3943 1.1794 10.2794C1.29426 10.1645 1.45005 10.1 1.6125 10.1C1.77495 10.1 1.93074 10.1645 2.0456 10.2794C2.16047 10.3943 2.225 10.5501 2.225 10.7125V12.55C2.225 12.8749 2.35406 13.1865 2.58379 13.4162C2.81353 13.6459 3.12511 13.775 3.45 13.775H5.2875C5.44995 13.775 5.60574 13.8395 5.7206 13.9544C5.83547 14.0693 5.9 14.2251 5.9 14.3875C5.9 14.5499 5.83547 14.7057 5.7206 14.8206C5.60574 14.9355 5.44995 15 5.2875 15H10.7125C10.5501 15 10.3943 14.9355 10.2794 14.8206C10.1645 14.7057 10.1 14.5499 10.1 14.3875C10.1 14.2251 10.1645 14.0693 10.2794 13.9544C10.3943 13.8395 10.5501 13.775 10.7125 13.775ZM2.225 5.2875C2.225 5.44995 2.16047 5.60574 2.0456 5.7206C1.93074 5.83547 1.77495 5.9 1.6125 5.9C1.45005 5.9 1.29426 5.83547 1.1794 5.7206C1.06453 5.60574 1 5.44995 1 5.2875V3.45C1 2.80022 1.25812 2.17705 1.71759 1.71759C2.17705 1.25812 2.80022 1 3.45 1H5.2875C5.44995 1 5.60574 1.06453 5.7206 1.1794C5.83547 1.29426 5.9 1.45005 5.9 1.6125C5.9 1.77495 5.83547 1.93074 5.7206 2.0456C5.60574 2.16047 5.44995 2.225 5.2875 2.225H3.45C3.12511 2.225 2.81353 2.35406 2.58379 2.58379C2.35406 2.81353 2.225 3.12511 2.225 3.45V5.2875ZM13.775 5.2875V3.45C13.775 3.12511 13.6459 2.81353 13.4162 2.58379C13.1865 2.35406 12.8749 2.225 12.55 2.225H10.7125C10.5501 2.225 10.3943 2.16047 10.2794 2.0456C10.1645 1.93074 10.1 1.77495 10.1 1.6125C10.1 1.45005 10.1645 1.29426 10.2794 1.1794C10.3943 1.06453 10.5501 1 10.7125 1H12.55C13.1998 1 13.8229 1.25812 14.2824 1.71759C14.7419 2.17705 15 2.80022 15 3.45V5.2875C15 5.44995 14.9355 5.60574 14.8206 5.7206C14.7057 5.83547 14.5499 5.9 14.3875 5.9C14.2251 5.9 14.0693 5.83547 13.9544 5.7206C13.8395 5.60574 13.775 5.44995 13.775 5.2875Z" fill="#2D363E"/>
<path d="M8.7 10.8458C8.7 11.2324 8.3866 11.5458 8 11.5458C7.6134 11.5458 7.3 11.2324 7.3 10.8458L7.29999 5.2C7.29999 4.8134 7.61339 4.5 7.99999 4.5C8.38659 4.5 8.69999 4.8134 8.69999 5.2L8.7 10.8458Z" fill="#2D363E"/>
<path d="M5.9 10.8458C5.9 11.2324 5.5866 11.5458 5.2 11.5458C4.8134 11.5458 4.5 11.2324 4.5 10.8458L4.49999 5.2C4.49999 4.8134 4.81339 4.5 5.19999 4.5C5.58659 4.5 5.89999 4.8134 5.89999 5.2L5.9 10.8458Z" fill="#2D363E"/>
<path d="M11.5 10.8458C11.5 11.2324 11.1866 11.5458 10.8 11.5458C10.4134 11.5458 10.1 11.2324 10.1 10.8458L10.1 5.2C10.1 4.8134 10.4134 4.5 10.8 4.5C11.1866 4.5 11.5 4.8134 11.5 5.2L11.5 10.8458Z" fill="#2D363E"/>
</svg>
