<svg width="43" height="16" viewBox="0 0 43 16" fill="none" xmlns="http://www.w3.org/2000/svg">
<path d="M7.93617 1.33334L8.3503 1.36433C9.37435 1.44181 10.3683 1.70522 11.2869 2.19331C12.4992 2.83634 13.5308 3.86675 13.9825 5.20706C14.344 6.2762 14.2837 7.43057 13.8018 8.45323C13.2823 9.56886 12.3637 10.4133 11.3095 10.9789C9.87131 11.7459 8.19971 11.9861 6.61093 11.7459L4.01317 13.5433C3.93788 13.5975 3.83999 13.5898 3.78728 13.5433C3.7421 13.5046 3.6668 13.4193 3.68939 13.3496L4.31436 10.9944C3.13972 10.3823 2.13074 9.4294 1.63378 8.17432C1.21211 7.12067 1.21964 5.95856 1.65636 4.91265C2.16086 3.70406 3.13972 2.78211 4.26918 2.18556C5.18028 1.70522 6.15915 1.44181 7.16813 1.36433C7.31873 1.34884 7.45426 1.36433 7.58227 1.33334H7.9437H7.93617Z" fill="black"/>
<path d="M41.6769 2.15456V2.17006L38.921 9.95622C38.6951 10.5915 38.4241 11.2036 38.1229 11.8079C37.5356 12.9467 36.7826 14.0004 35.7058 14.6667L34.2677 13.3109C34.614 12.9932 34.9227 12.6833 35.2239 12.3347C35.6079 11.8853 35.9393 11.3972 36.2028 10.8704L33.093 2.16231L35.4197 1.52702L37.4151 8.56169L39.3728 1.49603L41.6694 2.16231L41.6769 2.15456Z" fill="black"/>
<path d="M21.821 10.9711C21.5123 11.0331 21.2412 11.0409 20.94 11.0564C20.4958 11.0796 20.0741 11.0254 19.6449 10.9014V14.2715H17.2881V1.82917H18.9371L19.2308 2.61166C19.8558 1.95313 20.6614 1.589 21.5499 1.55801C23.4399 1.49603 24.5393 2.60392 24.9082 4.4478C25.0663 5.23804 25.104 6.02828 25.0362 6.83401C24.991 7.36084 24.8856 7.86442 24.7124 8.36025C24.2305 9.70831 23.2215 10.7077 21.821 10.9789V10.9711ZM22.6493 5.16831C22.5363 4.40907 22.1975 3.72729 21.4069 3.5646C20.8196 3.44064 20.1795 3.59559 19.6449 3.859V9.22022C20.0816 9.2822 20.5033 9.29769 20.925 9.22797C21.5725 9.1195 22.0996 8.71664 22.3707 8.10459C22.7547 7.25237 22.7773 6.08251 22.6418 5.16831H22.6493Z" fill="black"/>
<path d="M25.7064 7.48482C25.9398 6.34595 26.8057 5.74165 27.8448 5.50148C28.2514 5.40851 28.643 5.36202 29.0646 5.35428H30.5856C30.5932 5.09086 30.5856 4.8352 30.5329 4.58728C30.3673 3.84353 29.7272 3.59561 29.0345 3.6111C28.2138 3.63435 27.4231 3.84353 26.6777 4.2154L26.0301 2.61169C26.3916 2.34827 26.7605 2.17008 27.1671 2.01513C28.3192 1.58128 29.7649 1.44182 30.932 1.89892C31.685 2.20107 32.2497 2.79762 32.5208 3.58786C32.6789 4.04496 32.7542 4.51755 32.7542 5.01339V10.8395H31.1052L30.8642 10.0957C29.7875 10.8782 28.6053 11.3198 27.3252 10.9479C26.5647 10.7232 26.0075 10.1499 25.7741 9.37519C25.5934 8.76314 25.5633 8.12011 25.6988 7.48482H25.7064ZM29.6595 9.02656C29.9983 8.91035 30.307 8.76314 30.5856 8.51523V6.85728H29.4336C29.0721 6.85728 28.7258 6.91151 28.3945 7.04321C27.7846 7.29888 27.5737 7.92642 27.7243 8.53847C27.9201 9.36744 29.0646 9.21249 29.6595 9.01106V9.02656Z" fill="black"/>
</svg>
