<svg width="24" height="24" viewBox="0 0 24 24" fill="none" xmlns="http://www.w3.org/2000/svg">
<path fill-rule="evenodd" clip-rule="evenodd" d="M7.71428 6.28571C7.71428 5.14907 8.16581 4.05898 8.96954 3.25526C9.77327 2.45153 10.8634 2 12 2C13.1366 2 14.2267 2.45153 15.0305 3.25526C15.8342 4.05898 16.2857 5.14907 16.2857 6.28571V7.71429H17.2043C17.7354 7.71446 18.2475 7.91185 18.6413 8.26819C19.0351 8.62453 19.2826 9.11442 19.3357 9.64286L20.3357 19.6429C20.3657 19.9409 20.3328 20.2419 20.2392 20.5265C20.1457 20.811 19.9935 21.0728 19.7925 21.2949C19.5916 21.517 19.3463 21.6945 19.0724 21.816C18.7986 21.9374 18.5024 22.0001 18.2029 22H5.79571C5.49629 21.9999 5.20022 21.9371 4.92658 21.8155C4.65294 21.694 4.4078 21.5164 4.20698 21.2944C4.00616 21.0723 3.85411 20.8106 3.76064 20.5261C3.66717 20.2417 3.63434 19.9408 3.66428 19.6429L4.66428 9.64286C4.71739 9.11442 4.96485 8.62453 5.35867 8.26819C5.75249 7.91185 6.26461 7.71446 6.79571 7.71429H7.71428V6.28571ZM14.1429 6.28571V7.71429H9.85714V6.28571C9.85714 5.71739 10.0829 5.17235 10.4848 4.77049C10.8866 4.36862 11.4317 4.14286 12 4.14286C12.5683 4.14286 13.1134 4.36862 13.5152 4.77049C13.9171 5.17235 14.1429 5.71739 14.1429 6.28571Z" fill="#B8BCBF"/>
</svg>
