<svg width="24" height="24" viewBox="0 0 24 24" fill="none" xmlns="http://www.w3.org/2000/svg">
<path d="M10.1816 3C12.0863 3.00012 13.9129 3.75677 15.2598 5.10352C16.6065 6.4503 17.3631 8.27701 17.3633 10.1816C17.3633 11.6021 16.9425 12.9908 16.1533 14.1719C15.3642 15.3529 14.242 16.2728 12.9297 16.8164C11.6174 17.3599 10.1733 17.5027 8.78027 17.2256C7.3873 16.9484 6.10781 16.2641 5.10352 15.2598C4.09922 14.2554 3.4148 12.976 3.1377 11.583C2.86059 10.1899 3.00333 8.74587 3.54688 7.43359C4.09043 6.12133 5.01041 4.9991 6.19141 4.20996C7.29867 3.47011 8.5887 3.05402 9.91602 3.00488L10.1816 3Z" stroke="#2D363E" stroke-width="2" stroke-miterlimit="10"/>
<path d="M15.5 15.5L21 21" stroke="#2D363E" stroke-width="2" stroke-miterlimit="10" stroke-linecap="round"/>
</svg>
