<svg width="24" height="24" viewBox="0 0 24 24" fill="none" xmlns="http://www.w3.org/2000/svg">
<path d="M16 14.5C17.1596 14.5001 18.2748 14.948 19.1123 15.75C19.9497 16.552 20.4448 17.6463 20.4951 18.8047L20.5 19.0117V20C20.5001 20.3784 20.3569 20.743 20.0996 21.0205C19.8429 21.2972 19.4915 21.4661 19.1152 21.4951L18.9834 21.5H5L4.8584 21.4932C4.53145 21.4623 4.22221 21.3247 3.97949 21.0996C3.73679 20.8745 3.57587 20.5767 3.52051 20.2529L3.50391 20.1123L3.5 19.9834V19L3.50488 18.7832C3.55705 17.7021 3.99811 16.6729 4.75 15.8877C5.55198 15.0503 6.6463 14.5552 7.80469 14.5049L7.80371 14.5039L8.01172 14.5H16ZM12 2.5C13.1935 2.5 14.3377 2.97445 15.1816 3.81836C16.0256 4.66227 16.5 5.80653 16.5 7L16.4941 7.22266C16.4391 8.33506 15.9729 9.39036 15.1816 10.1816C14.3377 11.0256 13.1935 11.5 12 11.5C10.8065 11.5 9.66227 11.0256 8.81836 10.1816C7.97445 9.33773 7.5 8.19347 7.5 7C7.5 5.80653 7.97445 4.66227 8.81836 3.81836C9.66227 2.97445 10.8065 2.5 12 2.5Z" fill="#B8BCBF" stroke="#B8BCBF"/>
</svg>
