<svg width="24" height="24" viewBox="0 0 24 24" fill="none" xmlns="http://www.w3.org/2000/svg">
<path d="M15.875 20.25H18.5C18.9641 20.25 19.4092 20.0656 19.7374 19.7374C20.0656 19.4092 20.25 18.9641 20.25 18.5V15.875C20.25 15.6429 20.3422 15.4204 20.5063 15.2563C20.6704 15.0922 20.8929 15 21.125 15C21.3571 15 21.5796 15.0922 21.7437 15.2563C21.9078 15.4204 22 15.6429 22 15.875V18.5C22 19.4283 21.6312 20.3185 20.9749 20.9749C20.3185 21.6312 19.4283 22 18.5 22H5.5C4.57174 22 3.6815 21.6312 3.02513 20.9749C2.36875 20.3185 2 19.4283 2 18.5V15.875C2 15.6429 2.09219 15.4204 2.25628 15.2563C2.42038 15.0922 2.64294 15 2.875 15C3.10706 15 3.32962 15.0922 3.49372 15.2563C3.65781 15.4204 3.75 15.6429 3.75 15.875V18.5C3.75 18.9641 3.93437 19.4092 4.26256 19.7374C4.59075 20.0656 5.03587 20.25 5.5 20.25H8.125C8.35706 20.25 8.57962 20.3422 8.74372 20.5063C8.90781 20.6704 9 20.8929 9 21.125C9 21.3571 8.90781 21.5796 8.74372 21.7437C8.57962 21.9078 8.35706 22 8.125 22H15.875C15.6429 22 15.4204 21.9078 15.2563 21.7437C15.0922 21.5796 15 21.3571 15 21.125C15 20.8929 15.0922 20.6704 15.2563 20.5063C15.4204 20.3422 15.6429 20.25 15.875 20.25ZM3.75 8.125C3.75 8.35706 3.65781 8.57962 3.49372 8.74372C3.32962 8.90781 3.10706 9 2.875 9C2.64294 9 2.42038 8.90781 2.25628 8.74372C2.09219 8.57962 2 8.35706 2 8.125V5.5C2 4.57174 2.36875 3.6815 3.02513 3.02513C3.6815 2.36875 4.57174 2 5.5 2H8.125C8.35706 2 8.57962 2.09219 8.74372 2.25628C8.90781 2.42038 9 2.64294 9 2.875C9 3.10706 8.90781 3.32962 8.74372 3.49372C8.57962 3.65781 8.35706 3.75 8.125 3.75H5.5C5.03587 3.75 4.59075 3.93437 4.26256 4.26256C3.93437 4.59075 3.75 5.03587 3.75 5.5V8.125ZM20.25 8.125V5.5C20.25 5.03587 20.0656 4.59075 19.7374 4.26256C19.4092 3.93437 18.9641 3.75 18.5 3.75H15.875C15.6429 3.75 15.4204 3.65781 15.2563 3.49372C15.0922 3.32962 15 3.10706 15 2.875C15 2.64294 15.0922 2.42038 15.2563 2.25628C15.4204 2.09219 15.6429 2 15.875 2H18.5C19.4283 2 20.3185 2.36875 20.9749 3.02513C21.6312 3.6815 22 4.57174 22 5.5V8.125C22 8.35706 21.9078 8.57962 21.7437 8.74372C21.5796 8.90781 21.3571 9 21.125 9C20.8929 9 20.6704 8.90781 20.5063 8.74372C20.3422 8.57962 20.25 8.35706 20.25 8.125Z" fill="#2D363E"/>
<path d="M21 11C21.5523 11 22 11.4477 22 12C22 12.5523 21.5523 13 21 13H3C2.44772 13 2 12.5523 2 12C2 11.4477 2.44772 11 3 11H21Z" fill="#2D363E"/>
</svg>
