<svg width="24" height="24" viewBox="0 0 24 24" fill="none" xmlns="http://www.w3.org/2000/svg">
<path d="M12 2C12.9539 2 13.873 2.38663 14.5537 3.08105C15.2349 3.77604 15.621 4.72265 15.6211 5.71387V8.28613H17.6113C17.9302 8.28624 18.2415 8.40661 18.4834 8.62988C18.6954 8.82562 18.8409 9.08848 18.8965 9.37891L18.915 9.50488L19.9932 20.5049C20.012 20.6965 19.9913 20.89 19.9326 21.0723C19.8739 21.2545 19.7785 21.4205 19.6543 21.5605C19.5301 21.7005 19.38 21.8116 19.2139 21.8867C19.0479 21.9618 18.8686 22.0001 18.6885 22H5.31055C5.13041 21.9999 4.95112 21.9609 4.78516 21.8857C4.61929 21.8105 4.46868 21.7004 4.34473 21.5605C4.22072 21.4206 4.12604 21.2543 4.06738 21.0723C4.02342 20.9358 4.00067 20.7929 4 20.6494L4.00684 20.5049L5.08496 9.50488C5.11853 9.16484 5.27435 8.85357 5.5166 8.62988C5.75849 8.40661 6.06978 8.28624 6.38867 8.28613H8.37891V5.71387C8.37901 4.72265 8.76509 3.77604 9.44629 3.08105C10.127 2.38663 11.0461 2 12 2ZM12 2.35742C11.1155 2.35742 10.2716 2.71599 9.65234 3.34766C9.03384 3.9786 8.68956 4.83 8.68945 5.71387V8.28613H15.3105V5.71387C15.3104 4.83 14.9662 3.9786 14.3477 3.34766C13.7284 2.71599 12.8845 2.35742 12 2.35742Z" stroke="#2D363E" stroke-width="2"/>
<path d="M7.0932 17.22V13.5009C7.0932 13.0925 7.37792 12.7954 7.85028 12.7893C8.50383 12.7831 8.76914 13.1296 8.93738 13.6247L9.79799 16.2051L10.6263 13.5999C10.7816 13.1049 11.0598 12.7831 11.6422 12.7831C12.0887 12.7831 12.3992 13.0615 12.3992 13.4638V17.2076C12.3992 17.5479 12.0951 17.7026 11.8169 17.7026C11.5257 17.7026 11.2151 17.5541 11.2151 17.2138V14.7818L10.4451 17.22C10.238 17.8883 9.2868 17.8883 9.06679 17.22L8.25794 14.7818V17.22C8.25794 17.5541 7.94734 17.7088 7.6691 17.7088C7.38439 17.7088 7.0932 17.5603 7.0932 17.22Z" fill="#2D363E"/>
<path d="M14.4531 15.7039L13.0619 13.6185C12.9713 13.4885 12.926 13.3771 12.926 13.2843C12.926 12.944 13.256 12.7336 13.6054 12.7336C13.7866 12.7336 13.9549 12.8016 14.0519 12.9687L15.0873 14.6766L16.0126 13.0058C16.1226 12.8078 16.2779 12.7212 16.4785 12.7212C16.7761 12.7212 17.0932 12.9254 17.0932 13.1977C17.0932 13.2781 17.0738 13.3957 17.0285 13.4761L15.6696 15.7039V17.2261C15.6696 17.5479 15.3526 17.7088 15.0678 17.7088C14.7637 17.7088 14.4531 17.5479 14.4531 17.2261V15.7039Z" fill="#2D363E"/>
</svg>
