<svg width="24" height="24" viewBox="0 0 24 24" fill="none" xmlns="http://www.w3.org/2000/svg">
<path d="M18.5815 13.3719C18.8525 12.8907 19.4626 12.72 19.9438 12.991C20.4248 13.2621 20.5947 13.8722 20.3236 14.3533C20.0461 14.8459 19.6983 15.3002 19.3852 15.6863C19.5462 16.6061 19.7948 17.7338 20.0834 18.4646C20.2576 18.9042 20.1754 19.3695 19.9389 19.7088C19.698 20.054 19.2406 20.3322 18.6889 20.2371H18.6859C16.8639 19.9169 15.5531 19.4666 14.6898 19.0935C15.1127 18.5673 15.4639 17.9865 15.7318 17.3631C16.2506 17.5703 16.9496 17.8053 17.8451 18.0183C17.6378 17.2456 17.4751 16.4232 17.3705 15.7908C17.2988 15.3572 17.4242 14.9238 17.6938 14.5965C18.0389 14.1774 18.354 13.7756 18.5815 13.3719ZM11.8188 0.999786C14.2967 0.999812 16.5657 1.88534 18.2787 3.3494C18.6985 3.70823 18.7479 4.33972 18.3891 4.75955C18.0303 5.17882 17.3996 5.22819 16.9799 4.8699C15.6264 3.71308 13.8167 2.99981 11.8188 2.99979C8.48045 2.99985 5.70277 4.97245 4.64688 7.67361C3.72409 8.11086 2.8999 8.71094 2.21817 9.43631C2.57413 4.67034 6.79099 0.999863 11.8188 0.999786Z" fill="#2D363E"/>
<path d="M20.3102 4.76064C20.7934 4.76064 21.1852 5.20835 21.1852 5.76064V7.38564H22.8102C23.3625 7.38564 23.8102 7.77739 23.8102 8.26064C23.81 8.74374 23.3623 9.13564 22.8102 9.13564H21.1852V10.7606C21.185 11.3128 20.7933 11.7606 20.3102 11.7606C19.827 11.7606 19.4353 11.3128 19.4352 10.7606V9.13564H17.8102C17.258 9.13564 16.8104 8.74374 16.8102 8.26064C16.8102 7.77739 17.2579 7.38564 17.8102 7.38564H19.4352V5.76064C19.4352 5.20835 19.8269 4.76064 20.3102 4.76064Z" fill="#2D363E"/>
<path d="M14.3236 14.4918C14.3236 11.5396 11.8324 9.02783 8.57458 8.87366L8.2572 8.86584C4.84496 8.86584 2.18985 11.4445 2.18982 14.4918C2.18982 15.8875 2.73793 17.1724 3.6615 18.1647L3.96521 18.4908L3.92615 18.9352C3.87298 19.5317 3.75128 20.1512 3.59705 20.733C4.70809 20.4424 5.39165 20.1215 5.70544 19.9508L6.06482 19.7545L6.45837 19.8678C7.04412 20.0358 7.6483 20.1193 8.25427 20.1178H8.2572L8.57458 20.11C11.8324 19.9558 14.3236 17.444 14.3236 14.4918ZM16.3236 14.4918C16.3236 18.7625 12.6516 22.1157 8.25916 22.1168H8.25818L8.2572 22.1178V22.1168C7.59765 22.1183 6.94043 22.042 6.29724 21.8903C5.59756 22.2235 4.41243 22.6747 2.66345 22.9821H2.66052C2.12786 23.0738 1.68762 22.8044 1.4574 22.4742C1.23154 22.1501 1.15334 21.7059 1.3197 21.2858C1.55837 20.6816 1.77581 19.9049 1.88416 19.1666C0.827431 17.8808 0.189819 16.2587 0.189819 14.4918C0.189861 10.2203 3.86391 6.86584 8.2572 6.86584C12.6505 6.86602 16.3236 10.2205 16.3236 14.4918Z" fill="#2D363E"/>
</svg>
