<svg width="24" height="24" viewBox="0 0 24 24" fill="none" xmlns="http://www.w3.org/2000/svg">
<path d="M10.7354 7.88867H14.7832L15.2715 5.08203L15.2861 5H16.9062L16.4033 7.88867H19.2363L19.2168 8.00586L18.9688 9.4502L18.9541 9.5332H16.1201L15.4043 13.666H18.2383L18.2178 13.7832L17.9697 15.2275L17.9551 15.3105H15.1211L14.6328 18.1172L14.6182 18.1992H12.998L13.501 15.3105H9.45312L8.96484 18.1172L8.9502 18.1992H7.33008L7.83301 15.3105H5L5.01953 15.1934L5.26758 13.749L5.28223 13.666H8.11621L8.83203 9.5332H5.99805L6.01855 9.41602L6.2666 7.97168L6.28125 7.88867H9.11523L9.60352 5.08203L9.61816 5H11.2383L10.7354 7.88867ZM9.73633 13.666H13.7842L14.5 9.5332H10.4521L9.73633 13.666Z" fill="#212529"/>
</svg>
