<svg width="24" height="24" viewBox="0 0 24 24" fill="none" xmlns="http://www.w3.org/2000/svg">
<path d="M19.045 5.9943C17.3087 3.86988 14.5748 2.5 11.5 2.5C6.25362 2.5 2 6.488 2 11.4075C2 13.6471 2.88231 15.6958 4.33938 17.261C4.22419 18.5538 3.84419 19.9714 3.42381 21.0352C3.33 21.2719 3.51169 21.5365 3.748 21.4958C6.427 21.025 8.01944 20.3022 8.71175 19.9256C9.62111 20.1864 10.5586 20.3173 11.5 20.3149C13.9939 20.3149 16.4519 19.3677 18.1468 17.8937" stroke="#2D363E" stroke-width="2" stroke-linecap="round"/>
<path d="M20 8C20.5523 8 21 8.5114 21 9.14258V11H22.8574C23.4885 11.0001 24 11.4478 24 12C23.9998 12.552 23.4883 12.9999 22.8574 13H21V14.8564C21 15.4876 20.5523 16 20 16C19.4477 16 19 15.4876 19 14.8564V13H17.1426C16.5117 12.9999 16.0002 12.552 16 12C16 11.4478 16.5115 11.0001 17.1426 11H19V9.14258C19 8.5114 19.4477 8 20 8Z" fill="#2D363E"/>
</svg>
