<svg width="24" height="24" viewBox="0 0 24 24" fill="none" xmlns="http://www.w3.org/2000/svg">
<path d="M14.2917 1C19.1008 1 22.9999 4.65557 23.0001 9.16501C23.0001 11.218 22.1909 13.096 20.8552 14.5308C20.9608 15.7159 21.3096 17.0155 21.6949 17.9907C21.7809 18.2076 21.6143 18.4505 21.3977 18.4132C19.8963 18.1493 18.7677 17.7979 17.9718 17.4867C18.2601 16.6191 18.4167 15.6916 18.4167 14.7223C18.4167 9.56554 13.9941 5.58337 8.79165 5.58337C7.93869 5.58337 7.10695 5.69139 6.31197 5.8931C7.65743 3.01277 10.7236 1 14.2917 1Z" fill="#B8BCBF"/>
<path d="M8.79192 7.41672C13.0947 7.41685 16.5829 10.6876 16.5829 14.7224C16.5829 18.7572 13.0948 22.0279 8.79192 22.028C8.01983 22.03 7.25064 21.9226 6.50481 21.7087C5.93698 22.0176 4.63078 22.6106 2.43352 22.9968C2.23974 23.0301 2.09096 22.813 2.16789 22.6189C2.51266 21.7464 2.8244 20.5835 2.91887 19.5232C1.72381 18.2394 0.999924 16.5593 0.999924 14.7224C0.999969 10.6876 4.48897 7.41672 8.79192 7.41672ZM8.04973 12.0993C7.56095 11.8171 6.94944 12.1698 6.94914 12.7341V16.5446C6.94914 17.1092 7.56084 17.4627 8.04973 17.1804L11.3495 15.2751C11.8383 14.9929 11.8383 14.2869 11.3495 14.0046L8.04973 12.0993Z" fill="#B8BCBF"/>
</svg>
