<svg width="24" height="24" viewBox="0 0 24 24" fill="none" xmlns="http://www.w3.org/2000/svg">
<path d="M11.8975 3.27246C17.1442 3.27246 21.3955 6.63356 21.3955 10.7822C21.3952 14.9307 17.144 18.291 11.8975 18.291C11.2959 18.291 10.7063 18.2454 10.1348 18.1611C9.08193 18.8771 6.64245 20.5378 6.47949 20.6465C6.27191 20.7849 5.95267 20.7938 6.08203 20.2764C6.18737 19.8611 6.70768 17.9149 6.90625 17.1748C4.20194 15.8511 2.40053 13.4835 2.40039 10.7852C2.40039 6.63656 6.65082 3.27557 11.8975 3.27246ZM15.7305 8.48633C15.4719 8.48633 15.2133 8.59154 15.2129 8.79883C15.2219 9.18367 15.2012 12.5376 15.2012 12.791C15.2012 13.1851 16.2061 13.1851 16.2061 12.791V11.4648L16.501 11.2275L17.7881 12.9873C18.0499 13.3301 18.8681 12.7101 18.6094 12.3672L17.2412 10.5654C17.2535 10.5521 18.1725 9.55795 18.5371 9.19629C18.7506 8.98281 18.09 8.31877 17.876 8.53125C17.6684 8.73583 16.2119 10.1924 16.2119 10.1924C16.2119 10.1924 16.2239 9.27794 16.2119 8.77246C16.2059 8.57992 15.9711 8.48633 15.7305 8.48633ZM9.8584 8.4834C9.63878 8.48942 9.43107 8.57382 9.34082 8.77539C9.10012 9.30497 8.23021 11.8079 7.94141 12.4697C7.73413 12.948 8.63326 13.3386 8.84082 12.8604L9.03711 12.1777H10.8271C10.8271 12.1777 10.7662 12.2052 11.0039 12.834C11.1966 13.3421 12.1261 12.9898 11.9336 12.4814C11.6598 11.7563 10.71 9.14638 10.5352 8.77539C10.4569 8.61596 10.204 8.49846 9.94531 8.4834H9.8584ZM12.8037 8.4834C12.6714 8.4834 12.5387 8.51958 12.4395 8.59473C12.3643 8.65184 12.3102 8.72701 12.2861 8.82617C12.2771 8.85926 12.2734 8.89554 12.2734 8.93164C12.2734 9.77789 12.2792 12.4906 12.2793 12.5234C12.2793 12.5234 12.2017 13.0684 12.668 13.0684C13.1342 13.0684 14.1714 13.0625 14.6289 13.0625C15.0862 13.0625 15.0862 12.085 14.6289 12.085C14.1762 12.085 13.35 12.0782 13.333 12.0781C13.333 12.0436 13.336 9.53835 13.333 8.92871C13.333 8.63105 13.0683 8.48357 12.8037 8.4834ZM5.27051 8.46191C4.69589 8.46191 4.6989 9.40137 5.27051 9.40137H6.24805C6.24813 9.43927 6.25401 12.0909 6.24805 12.7129C6.24805 13.17 7.264 13.1766 7.26465 12.7197V9.4375H8.24219C8.8499 9.4375 8.8499 8.48047 8.24219 8.48047C7.56144 8.48046 5.30643 8.4622 5.27051 8.46191ZM10.4961 11.2812H9.36133L9.95117 9.5752L10.4961 11.2812Z" fill="#371C1D"/>
</svg>
