<svg width="24" height="24" viewBox="0 0 24 24" fill="none" xmlns="http://www.w3.org/2000/svg">
<path d="M12 7.75021V20.9724M12 7.75021C11.6584 6.34242 11.0701 5.13888 10.312 4.29653C9.55391 3.45418 8.66109 3.01211 7.75 3.02799C7.12379 3.02799 6.52323 3.27674 6.08044 3.71954C5.63765 4.16233 5.38889 4.76289 5.38889 5.3891C5.38889 6.0153 5.63765 6.61586 6.08044 7.05865C6.52323 7.50145 7.12379 7.75021 7.75 7.75021M12 7.75021C12.3416 6.34242 12.9299 5.13888 13.688 4.29653C14.4461 3.45418 15.3389 3.01211 16.25 3.02799C16.8762 3.02799 17.4768 3.27674 17.9196 3.71954C18.3623 4.16233 18.6111 4.76289 18.6111 5.3891C18.6111 6.0153 18.3623 6.61586 17.9196 7.05865C17.4768 7.50145 16.8762 7.75021 16.25 7.75021M19.5556 11.528V19.0835C19.5556 19.5845 19.3565 20.065 19.0023 20.4192C18.6481 20.7734 18.1676 20.9724 17.6667 20.9724H6.33333C5.83237 20.9724 5.35192 20.7734 4.99769 20.4192C4.64345 20.065 4.44444 19.5845 4.44444 19.0835V11.528" stroke="#2D363E" stroke-width="2" stroke-linecap="round" stroke-linejoin="round"/>
<path d="M19.5556 7.75026H4.44444C3.92284 7.75026 3.5 8.1731 3.5 8.6947V10.5836C3.5 11.1052 3.92284 11.528 4.44444 11.528H19.5556C20.0772 11.528 20.5 11.1052 20.5 10.5836V8.6947C20.5 8.1731 20.0772 7.75026 19.5556 7.75026Z" stroke="#2D363E" stroke-width="2" stroke-linecap="round" stroke-linejoin="round"/>
</svg>
