<svg width="24" height="24" viewBox="0 0 24 24" fill="none" xmlns="http://www.w3.org/2000/svg">
<path d="M14 14.9998C15.0307 14.9998 16.0221 15.3982 16.7666 16.1111C17.5061 16.8193 17.9446 17.7842 17.9941 18.8064H17.9951L18 19.0232V20.0007C18 20.2528 17.9048 20.4956 17.7334 20.6804C17.5632 20.8639 17.3303 20.9765 17.0811 20.9968L16.9971 20.9998H3L2.90527 20.9958C2.68733 20.9753 2.48113 20.8832 2.31934 20.7332C2.13797 20.5649 2.02505 20.3356 2.00293 20.0896L2 19.9998V18.9998L2.00488 18.8074C2.05125 17.8464 2.44298 16.9321 3.11133 16.2341C3.8217 15.4923 4.7897 15.051 5.81543 15.0037L6.02344 14.9998H14ZM10 2.5437C11.1819 2.5437 12.3156 3.01365 13.1514 3.84937C13.9868 4.68499 14.456 5.81813 14.4561 6.99976C14.4561 8.18158 13.987 9.31542 13.1514 10.1511C12.3156 10.9868 11.1819 11.4568 10 11.4568C8.81812 11.4568 7.68435 10.9868 6.84863 10.1511C6.01299 9.31542 5.54395 8.18158 5.54395 6.99976C5.54401 5.81813 6.0132 4.68499 6.84863 3.84937C7.68435 3.01365 8.81812 2.5437 10 2.5437Z" stroke="#2D363E" stroke-width="2"/>
<path d="M20 6.98926C20.5523 6.98926 21 7.50065 21 8.13184V9.98926H22.8574C23.4885 9.98939 24 10.4371 24 10.9893C23.9998 11.5413 23.4883 11.9891 22.8574 11.9893H21V13.8457C21 14.4769 20.5523 14.9893 20 14.9893C19.4477 14.9893 19 14.4769 19 13.8457V11.9893H17.1426C16.5117 11.9891 16.0002 11.5413 16 10.9893C16 10.4371 16.5115 9.98939 17.1426 9.98926H19V8.13184C19 7.50065 19.4477 6.98926 20 6.98926Z" fill="#2D363E"/>
</svg>
