<svg width="600" height="184" viewBox="0 0 600 184" fill="none" xmlns="http://www.w3.org/2000/svg">
<g clip-path="url(#clip0_4_11)">
<path d="M20.9167 180.811H0V4.56996L20.9167 0V180.811ZM76.8588 52.8971L93.2293 64.7543L52.9748 115.372L99.5894 171.458L83.4428 184L28.4189 116.506L76.8588 52.8971Z" fill="#371C1D"/>
<path d="M118.11 147.294C118.11 134.674 122.309 125.062 130.741 118.449C139.15 111.835 151.388 108.523 167.457 108.523H191.576V100.55C191.576 81.2376 183.077 71.5924 166.102 71.5924C160.649 71.5924 154.927 72.3559 148.947 73.8717C142.957 75.3988 137.459 77.2852 132.454 79.5645L126.306 64.743C132.521 61.251 139.228 58.5449 146.439 56.6473C153.639 54.7497 160.649 53.7953 167.457 53.7953C196.872 53.7953 211.574 69.5263 211.574 100.988V180.789H196.122L193.614 167.112C187.399 172.132 180.77 176.005 173.716 178.745C166.673 181.485 159.966 182.843 153.583 182.843C142.52 182.843 133.853 179.688 127.56 173.378C121.268 167.068 118.11 158.366 118.11 147.272M157.368 165.99C160.234 165.99 163.213 165.608 166.315 164.844C169.405 164.081 172.496 163.104 175.597 161.88C178.699 160.656 181.61 159.174 184.32 157.434C187.041 155.682 189.46 153.818 191.576 151.853V122.67H169.831C158.824 122.67 150.784 124.568 145.711 128.363C140.661 132.158 138.131 138.166 138.131 146.374C138.131 159.443 144.536 165.978 157.379 165.978" fill="#371C1D"/>
<path d="M269.711 180.811H248.794V4.56996L269.711 0V180.811ZM325.642 52.8971L342.013 64.7543L301.78 115.372L348.384 171.458L332.248 184L277.225 116.506L325.642 52.8971Z" fill="#371C1D"/>
<path d="M366.904 147.294C366.904 134.674 371.103 125.062 379.513 118.449C387.933 111.835 400.16 108.523 416.24 108.523H440.337V100.55C440.337 81.2376 431.849 71.5924 414.874 71.5924C409.41 71.5924 403.699 72.3559 397.697 73.8717C391.706 75.3988 386.209 77.2852 381.226 79.5645L375.078 64.743C381.293 61.251 388 58.5449 395.2 56.6473C402.389 54.7497 409.41 53.7953 416.229 53.7953C445.633 53.7953 460.346 69.5263 460.346 100.988V180.789H444.872L442.375 167.112C436.16 172.132 429.542 176.005 422.477 178.745C415.434 181.485 408.726 182.843 402.366 182.843C391.292 182.843 382.614 179.688 376.321 173.378C370.028 167.068 366.893 158.366 366.893 147.272M406.162 165.99C409.018 165.99 412.007 165.608 415.098 164.844C418.199 164.081 421.29 163.104 424.38 161.88C427.482 160.656 430.382 159.174 433.103 157.434C435.813 155.682 438.22 153.818 440.348 151.853V122.67H418.614C407.584 122.67 399.545 124.568 394.495 128.363C389.433 132.158 386.914 138.166 386.914 146.374C386.914 159.443 393.319 165.978 406.162 165.978" fill="#371C1D"/>
<path d="M544.517 54.0424C561.795 54.0424 575.366 59.6678 585.208 70.9074C595.073 82.1695 600 98.2711 600 119.257C600 140.243 595.118 155.817 585.331 166.91C575.556 177.993 561.94 183.551 544.517 183.551C527.094 183.551 513.668 178.004 503.826 166.91C493.961 155.817 489.034 139.917 489.034 119.257C489.034 98.5967 493.994 82.1695 503.927 70.9074C513.859 59.6678 527.385 54.0424 544.517 54.0424ZM544.517 70.9074C533.611 70.9074 525.235 75.0058 519.39 83.225C513.545 91.433 510.623 103.447 510.623 119.257C510.623 135.067 513.545 146.733 519.39 154.716C525.224 162.688 533.6 166.686 544.517 166.686C555.434 166.686 564.023 162.688 569.879 154.716C575.713 146.733 578.624 134.921 578.624 119.257C578.624 103.593 575.702 91.433 569.879 83.225C564.034 75.017 555.58 70.9074 544.517 70.9074Z" fill="#371C1D"/>
</g>
<defs>
<clipPath id="clip0_4_11">
<rect width="600" height="184" fill="white"/>
</clipPath>
</defs>
</svg>
